<svg width="17" height="12" viewBox="0 0 17 12" fill="none" xmlns="http://www.w3.org/2000/svg">
<path id="Vector" d="M9.57143 11C9.57143 9.86336 9.1199 8.77327 8.31617 7.96954C7.51244 7.16582 6.42236 6.71429 5.28571 6.71429M5.28571 6.71429C4.14907 6.71429 3.05898 7.16582 2.25526 7.96954C1.45153 8.77327 1 9.86336 1 11M5.28571 6.71429C6.86367 6.71429 8.14286 5.4351 8.14286 3.85714C8.14286 2.27919 6.86367 1 5.28571 1C3.70776 1 2.42857 2.27919 2.42857 3.85714C2.42857 5.4351 3.70776 6.71429 5.28571 6.71429ZM15.2857 11C15.2857 9.86336 14.8342 8.77327 14.0305 7.96954C13.2267 7.16582 12.1366 6.71429 11 6.71429C11.7578 6.71429 12.4845 6.41327 13.0203 5.87745C13.5561 5.34163 13.8571 4.6149 13.8571 3.85714C13.8571 3.09938 13.5561 2.37266 13.0203 1.83684C12.4845 1.30102 11.7578 1 11 1" stroke="currentColor" stroke-width="1.5" stroke-linecap="round" stroke-linejoin="round"/>
</svg>
