<svg viewBox="0 0 28 20" fill="none" xmlns="http://www.w3.org/2000/svg">
<path d="M23.1078 1.67497C21.374 0.881212 19.5437 0.318094 17.6636 0C17.4064 0.459917 17.1736 0.933111 16.9662 1.4176C14.9636 1.11582 12.927 1.11582 10.9243 1.4176C10.7169 0.933161 10.4841 0.459973 10.2269 0C8.34563 0.32078 6.51412 0.885235 4.77862 1.67912C1.33321 6.77667 0.399212 11.7476 0.86621 16.648C2.88393 18.1388 5.14233 19.2725 7.54325 20C8.08387 19.2729 8.56224 18.5015 8.9733 17.6941C8.19255 17.4025 7.43899 17.0427 6.72133 16.6189C6.91021 16.4819 7.09493 16.3408 7.27343 16.2038C9.36164 17.1859 11.6408 17.695 13.9484 17.695C16.256 17.695 18.5352 17.1859 20.6234 16.2038C20.8039 16.3512 20.9887 16.4923 21.1755 16.6189C20.4564 17.0434 19.7015 17.4038 18.9193 17.6961C19.3299 18.5032 19.8083 19.2739 20.3494 20C22.7524 19.2755 25.0125 18.1422 27.0306 16.6501C27.5785 10.9672 26.0945 6.04193 23.1078 1.67497ZM9.56484 13.6343C8.26347 13.6343 7.18833 12.4533 7.18833 11.0004C7.18833 9.54753 8.22611 8.35616 9.56069 8.35616C10.8953 8.35616 11.9621 9.54753 11.9393 11.0004C11.9164 12.4533 10.8911 13.6343 9.56484 13.6343ZM18.332 13.6343C17.0285 13.6343 15.9575 12.4533 15.9575 11.0004C15.9575 9.54753 16.9953 8.35616 18.332 8.35616C19.6686 8.35616 20.7271 9.54753 20.7043 11.0004C20.6815 12.4533 19.6582 13.6343 18.332 13.6343Z" fill="currentColor"/>
</svg>
