<svg width="16" height="13" viewBox="0 0 16 13" fill="none" xmlns="http://www.w3.org/2000/svg">
<path id="Vector" d="M14.75 6.5H1M14.75 6.5V10.625C14.75 10.9897 14.6051 11.3394 14.3473 11.5973C14.0894 11.8551 13.7397 12 13.375 12H2.375C2.01033 12 1.66059 11.8551 1.40273 11.5973C1.14487 11.3394 1 10.9897 1 10.625V6.5M14.75 6.5L12.3781 1.76313C12.2643 1.53404 12.0888 1.34126 11.8714 1.20644C11.654 1.07163 11.4033 1.00014 11.1475 1H4.6025C4.34669 1.00014 4.09599 1.07163 3.87859 1.20644C3.66119 1.34126 3.48571 1.53404 3.37187 1.76313L1 6.5M3.75 9.25H3.75688M6.5 9.25H6.50688" stroke="currentColor" stroke-width="1.5" stroke-linecap="round" stroke-linejoin="round"/>
</svg>
