<svg viewBox="0 0 21 20" fill="none" xmlns="http://www.w3.org/2000/svg">
<path fill-rule="evenodd" clip-rule="evenodd" d="M10.8389 0C5.21084 0 0.661072 4.58331 0.661072 10.2535C0.661072 14.786 3.57627 18.6226 7.62042 19.9805C8.12604 20.0826 8.31125 19.7599 8.31125 19.4885C8.31125 19.2508 8.29458 18.436 8.29458 17.587C5.46334 18.1983 4.87376 16.3647 4.87376 16.3647C4.41876 15.1764 3.7446 14.871 3.7446 14.871C2.81794 14.2429 3.8121 14.2429 3.8121 14.2429C4.84001 14.3108 5.37939 15.2954 5.37939 15.2954C6.28917 16.857 7.75521 16.4158 8.345 16.1441C8.42916 15.482 8.69896 15.0237 8.98541 14.7691C6.7273 14.5314 4.35147 13.6487 4.35147 9.71017C4.35147 8.58976 4.75564 7.67309 5.39605 6.96018C5.29501 6.7056 4.94105 5.65289 5.4973 4.24394C5.4973 4.24394 6.35667 3.97228 8.29437 5.29644C9.12397 5.07199 9.97952 4.95782 10.8389 4.95685C11.6983 4.95685 12.5744 5.07581 13.3833 5.29644C15.3212 3.97228 16.1806 4.24394 16.1806 4.24394C16.7368 5.65289 16.3827 6.7056 16.2816 6.96018C16.9389 7.67309 17.3264 8.58976 17.3264 9.71017C17.3264 13.6487 14.9506 14.5143 12.6756 14.7691C13.0464 15.0916 13.3664 15.7026 13.3664 16.6703C13.3664 18.0453 13.3498 19.1489 13.3498 19.4883C13.3498 19.7599 13.5352 20.0826 14.0406 19.9808C18.0848 18.6224 20.9999 14.786 20.9999 10.2535C21.0166 4.58331 16.4502 0 10.8389 0Z" fill="currentColor"/>
</svg>
