<svg width="17" height="16" viewBox="0 0 17 16" fill="none" xmlns="http://www.w3.org/2000/svg">
<path id="Installing" d="M8.49549 15V8.69853M14.0968 9.04861V11.4082C14.0971 11.6724 14.0247 11.9317 13.8877 12.1577C13.7506 12.3836 13.5541 12.5676 13.3196 12.6895L9.11864 14.846C8.92615 14.946 8.71241 14.9982 8.49549 14.9982C8.27856 14.9982 8.06483 14.946 7.87234 14.846L3.67136 12.6895C3.43687 12.5676 3.24036 12.3836 3.10331 12.1577C2.96625 11.9317 2.89391 11.6724 2.89418 11.4082V9.04861M14.7339 5.78585L6.08693 1.15777C5.89179 1.05417 5.67422 1 5.45328 1C5.23234 1 5.01477 1.05417 4.81963 1.15777L2.26404 2.48808C2.03361 2.61436 1.84083 2.79953 1.7054 3.0247C1.56996 3.24986 1.49672 3.50694 1.49316 3.76968C1.4896 4.03241 1.55585 4.29138 1.68513 4.52013C1.81442 4.74888 2.00211 4.93921 2.22903 5.07169L10.785 9.92382C10.9928 10.0391 11.2266 10.0995 11.4642 10.0995C11.7018 10.0995 11.9355 10.0391 12.1433 9.92382L14.797 8.35545C15.0192 8.21964 15.2018 8.02775 15.3264 7.79904C15.451 7.57032 15.5133 7.31285 15.5069 7.05247C15.5005 6.79209 15.4257 6.53798 15.29 6.31565C15.1544 6.09332 14.9626 5.9106 14.7339 5.78585ZM2.25703 5.78585L10.9041 1.15777C11.0992 1.05417 11.3168 1 11.5377 1C11.7586 1 11.9762 1.05417 12.1713 1.15777L14.7269 2.48808C14.9592 2.61117 15.1547 2.79374 15.2932 3.01711C15.4318 3.24049 15.5086 3.49667 15.5157 3.75946C15.5229 4.02224 15.4601 4.2822 15.3338 4.51276C15.2075 4.74332 15.0222 4.9362 14.797 5.07169L6.20596 9.92382C5.99815 10.0391 5.76443 10.0995 5.5268 10.0995C5.28917 10.0995 5.05545 10.0391 4.84764 9.92382L2.19402 8.35545C1.97177 8.21964 1.78917 8.02775 1.66456 7.79904C1.53994 7.57032 1.4777 7.31285 1.48409 7.05247C1.49047 6.79209 1.56526 6.53798 1.70093 6.31565C1.83661 6.09332 2.0284 5.9106 2.25703 5.78585Z" stroke="currentColor" stroke-width="1.5" stroke-linecap="round" stroke-linejoin="round"/>
</svg>
