<svg xmlns="http://www.w3.org/2000/svg" width="20" height="20" viewBox="0 0 20 20" fill="none">
<path d="M1.5 5.75L5.2485 2.0015C5.40665 1.84241 5.59472 1.71619 5.80188 1.63012C6.00903 1.54404 6.23118 1.49982 6.4555 1.5H13.5445C13.7688 1.49982 13.991 1.54404 14.1981 1.63012C14.4053 1.71619 14.5934 1.84241 14.7515 2.0015L18.5 5.75M1.5 5.75H18.5M1.5 5.75V8.3C1.5 8.75087 1.67911 9.18327 1.99792 9.50208C2.31673 9.82089 2.74913 10 3.2 10M18.5 5.75V8.3C18.5 8.75087 18.3209 9.18327 18.0021 9.50208C17.6833 9.82089 17.2509 10 16.8 10M3.2 10V16.8C3.2 17.2509 3.37911 17.6833 3.69792 18.0021C4.01673 18.3209 4.44913 18.5 4.9 18.5H15.1C15.5509 18.5 15.9833 18.3209 16.3021 18.0021C16.6209 17.6833 16.8 17.2509 16.8 16.8V10M3.2 10C3.69663 9.97267 4.17093 9.78473 4.5515 9.4645C4.65292 9.39121 4.77487 9.35176 4.9 9.35176C5.02513 9.35176 5.14708 9.39121 5.2485 9.4645C5.62907 9.78473 6.10337 9.97267 6.6 10C7.09663 9.97267 7.57093 9.78473 7.9515 9.4645C8.05292 9.39121 8.17487 9.35176 8.3 9.35176C8.42513 9.35176 8.54708 9.39121 8.6485 9.4645C9.02907 9.78473 9.50338 9.97267 10 10C10.4966 9.97267 10.9709 9.78473 11.3515 9.4645C11.4529 9.39121 11.5749 9.35176 11.7 9.35176C11.8251 9.35176 11.9471 9.39121 12.0485 9.4645C12.4291 9.78473 12.9034 9.97267 13.4 10C13.8966 9.97267 14.3709 9.78473 14.7515 9.4645C14.8529 9.39121 14.9749 9.35176 15.1 9.35176C15.2251 9.35176 15.3471 9.39121 15.4485 9.4645C15.8291 9.78473 16.3034 9.97267 16.8 10M12.55 18.5V15.1C12.55 14.6491 12.3709 14.2167 12.0521 13.8979C11.7333 13.5791 11.3009 13.4 10.85 13.4H9.15C8.69913 13.4 8.26673 13.5791 7.94792 13.8979C7.62911 14.2167 7.45 14.6491 7.45 15.1V18.5" stroke="currentColor" stroke-width="1.5" stroke-linecap="round" stroke-linejoin="round"/>
</svg>
