<svg fill="currentColor" viewBox="0 0 20 20" width="20" height="20" xmlns="http://www.w3.org/2000/svg"><path d="m7.8 12c-.56 0-1-.45-1-.99s.45-1 1-1 .99.45.99 1-.45.99-.99.99zm12.2-2c0 5.52-4.48 10-10 10s-10-4.48-10-10 4.48-10 10-10 10 4.48 10 10zm-5.33-1.66c-.38 0-.71.16-.96.4-.9-.62-2.12-1.03-3.47-1.07l.7-3.16 2.23.5c0 .55.45.99.99.99s1-.46 1-1-.45-1-1-1c-.39 0-.73.23-.89.56l-2.47-.55c-.12-.03-.25.06-.28.18l-.77 3.48c-1.34.06-2.54.46-3.45 1.08-.25-.26-.59-.41-.97-.41-1.41 0-1.87 1.89-.58 2.53-.04.2-.07.41-.07.62 0 2.12 2.39 3.84 5.32 3.84s5.33-1.72 5.33-3.84c0-.21-.02-.44-.08-.64 1.26-.65.8-2.52-.6-2.52zm-2.78 4.68c-.73.73-3.07.72-3.77 0-.09-.09-.25-.09-.33 0-.1.1-.1.26 0 .35.92.92 3.52.92 4.44 0 .1-.09.1-.25 0-.35-.09-.09-.25-.09-.33 0zm.31-3.02c-.55 0-.99.45-.99 1s.45.99.99.99 1-.45 1-.99-.44-1-1-1z"/></svg>