<svg xmlns="http://www.w3.org/2000/svg" width="12" height="12" viewBox="0 0 12 12" fill="none">
<path d="M10.1573 8.77785C9.60794 9.60009 8.82705 10.241 7.91342 10.6194C6.99979 10.9978 5.99445 11.0969 5.02455 10.9039C4.05464 10.711 3.16373 10.2348 2.46447 9.53553C1.76521 8.83627 1.289 7.94535 1.09608 6.97545C0.90315 6.00555 1.00217 5.00021 1.3806 4.08658C1.75904 3.17295 2.3999 2.39206 3.22215 1.84265C4.0444 1.29324 5.01109 1 6 1C7.4 1 8.73889 1.55556 9.74444 2.52222L11 3.77778M11 3.77778V1M11 3.77778H8.22222" stroke="currentColor" stroke-width="2" stroke-linecap="round" stroke-linejoin="round"/>
</svg>
