<svg width="24" height="24" viewBox="0 0 24 24" fill="none" xmlns="http://www.w3.org/2000/svg">
<g id="Frame">
<path id="Vector" d="M3.84938 8.6201C3.70346 7.96262 3.72587 7.27894 3.91451 6.63244C4.10316 5.98593 4.45194 5.39754 4.92851 4.92182C5.40509 4.4461 5.99403 4.09844 6.64073 3.91109C7.28742 3.72374 7.97094 3.70276 8.62791 3.8501C8.98951 3.2844 9.48765 2.81886 10.0764 2.49638C10.6652 2.17391 11.3256 2.00488 11.9969 2.00488C12.6681 2.00488 13.3286 2.17391 13.9173 2.49638C14.5061 2.81886 15.0042 3.2844 15.3658 3.8501C16.0238 3.70212 16.7085 3.72301 17.3562 3.91081C18.004 4.09862 18.5937 4.44724 19.0705 4.92425C19.5474 5.40126 19.8959 5.99117 20.0837 6.6391C20.2714 7.28703 20.2923 7.97193 20.1444 8.6301C20.7099 8.99181 21.1753 9.4901 21.4977 10.079C21.82 10.668 21.989 11.3286 21.989 12.0001C21.989 12.6715 21.82 13.3322 21.4977 13.9211C21.1753 14.5101 20.7099 15.0084 20.1444 15.3701C20.2917 16.0273 20.2707 16.711 20.0834 17.3579C19.8961 18.0048 19.5486 18.5939 19.073 19.0706C18.5974 19.5473 18.0092 19.8962 17.3629 20.0849C16.7166 20.2736 16.0331 20.2961 15.3758 20.1501C15.0147 20.718 14.5162 21.1855 13.9264 21.5094C13.3366 21.8333 12.6747 22.0032 12.0019 22.0032C11.3291 22.0032 10.6671 21.8333 10.0773 21.5094C9.48756 21.1855 8.98903 20.718 8.62791 20.1501C7.97094 20.2974 7.28742 20.2765 6.64073 20.0891C5.99403 19.9018 5.40509 19.5541 4.92851 19.0784C4.45194 18.6027 4.10316 18.0143 3.91451 17.3678C3.72587 16.7213 3.70346 16.0376 3.84938 15.3801C3.27951 15.0193 2.81011 14.5203 2.48484 13.9293C2.15958 13.3384 1.98901 12.6747 1.98901 12.0001C1.98901 11.3255 2.15958 10.6618 2.48484 10.0709C2.81011 9.47992 3.27951 8.98085 3.84938 8.6201Z" fill="#2ED9FF"/>
<path id="Vector_2" d="M9 12L11 14L15 10" stroke="black" stroke-width="2" stroke-linecap="round" stroke-linejoin="round"/>
</g>
</svg>
