<svg width="19" height="17" viewBox="0 0 19 17" fill="none" xmlns="http://www.w3.org/2000/svg">
<path id="Vector" d="M9.34185 6.00769V9.33844M9.34185 12.6692H9.35018M17.4439 13.5019L10.7824 1.84426C10.6372 1.58796 10.4265 1.37478 10.172 1.22646C9.91744 1.07814 9.62812 1 9.33353 1C9.03893 1 8.74961 1.07814 8.49507 1.22646C8.24054 1.37478 8.0299 1.58796 7.88465 1.84426L1.22316 13.5019C1.07634 13.7561 0.999354 14.0447 1 14.3383C1.00065 14.6319 1.07892 14.9201 1.22686 15.1738C1.3748 15.4274 1.58716 15.6374 1.84242 15.7825C2.09768 15.9275 2.38676 16.0026 2.68036 15.9999H16.0033C16.2955 15.9996 16.5825 15.9225 16.8354 15.7762C17.0884 15.6299 17.2984 15.4196 17.4443 15.1665C17.5903 14.9134 17.6671 14.6263 17.667 14.3341C17.6669 14.0419 17.59 13.7549 17.4439 13.5019Z" stroke="currentColor" stroke-width="1.5" stroke-linecap="round" stroke-linejoin="round"/>
</svg>
